<?xml version="1.0" encoding="UTF-8"?>
<svg width="1024" height="1024" viewBox="0 0 1024 1024" fill="none" xmlns="http://www.w3.org/2000/svg">
  <defs>
    <linearGradient id="bg" x1="0" y1="0" x2="1024" y2="1024" gradientUnits="userSpaceOnUse">
      <stop stop-color="#6C5CE7"/>
      <stop offset="1" stop-color="#8E7CFF"/>
    </linearGradient>
  </defs>

  <!-- Chat bubble background -->
  <path d="M192 160h512c97.2 0 176 78.8 176 176v256c0 97.2-78.8 176-176 176H448l-152 96c-20.2 12.8-46-1.7-46-25.5V768h-58c-97.2 0-176-78.8-176-176V336c0-97.2 78.8-176 176-176Z" fill="url(#bg)"/>

  <!-- Monkey face base -->
  <g transform="translate(150,140)">
    <ellipse cx="362" cy="350" rx="210" ry="190" fill="#FFE8C7"/>
    <!-- Ears -->
    <ellipse cx="180" cy="350" rx="70" ry="80" fill="#FFE8C7"/>
    <ellipse cx="544" cy="350" rx="70" ry="80" fill="#FFE8C7"/>
    <!-- Head top darker -->
    <path d="M152 360c20-140 150-220 310-200 90 10 160 70 188 140-38-48-114-86-200-94-144-14-258 52-298 154Z" fill="#F9D9A9"/>
    <!-- Face muzzle -->
    <ellipse cx="362" cy="408" rx="150" ry="118" fill="#FFF3E0"/>
    <!-- Eyes -->
    <circle cx="312" cy="360" r="16" fill="#3C2A24"/>
    <circle cx="412" cy="360" r="16" fill="#3C2A24"/>
    <!-- Nose -->
    <path d="M362 378c-14 0-26 10-26 22s12 22 26 22 26-10 26-22-12-22-26-22Z" fill="#D2B08A"/>
    <!-- Smile -->
    <path d="M298 428c24 28 104 28 128 0" stroke="#3C2A24" stroke-width="10" stroke-linecap="round" fill="none"/>
  </g>

  <!-- Small chat spark/dot -->
  <circle cx="768" cy="288" r="14" fill="#B3A6FF"/>
</svg>

